<?xml version="1.0" encoding="UTF-8" standalone="no"?>
<!-- Created with Inkscape (http://www.inkscape.org/) -->

<svg
   xmlns:dc="http://purl.org/dc/elements/1.1/"
   xmlns:cc="http://creativecommons.org/ns#"
   xmlns:rdf="http://www.w3.org/1999/02/22-rdf-syntax-ns#"
   xmlns:svg="http://www.w3.org/2000/svg"
   xmlns="http://www.w3.org/2000/svg"
   xmlns:sodipodi="http://sodipodi.sourceforge.net/DTD/sodipodi-0.dtd"
   xmlns:inkscape="http://www.inkscape.org/namespaces/inkscape"
   width="64"
   height="64"
   viewBox="0 0 16.933333 16.933334"
   version="1.1"
   id="svg8"
   inkscape:version="0.92.3 (2405546, 2018-03-11)"
   sodipodi:docname="crashbox.svg"
   inkscape:export-filename="/home/jodersky/.background.png"
   inkscape:export-xdpi="96"
   inkscape:export-ydpi="96">
  <defs
     id="defs2" />
  <sodipodi:namedview
     id="base"
     pagecolor="#ffffff"
     bordercolor="#666666"
     borderopacity="1.0"
     inkscape:pageopacity="0.0"
     inkscape:pageshadow="2"
     inkscape:zoom="8.1454544"
     inkscape:cx="49.880572"
     inkscape:cy="41.270535"
     inkscape:document-units="mm"
     inkscape:current-layer="layer1"
     showgrid="false"
     inkscape:snap-global="true"
     inkscape:snap-bbox="true"
     inkscape:bbox-nodes="true"
     inkscape:object-paths="true"
     inkscape:window-width="1920"
     inkscape:window-height="1080"
     inkscape:window-x="0"
     inkscape:window-y="0"
     inkscape:window-maximized="0"
     inkscape:snap-bbox-edge-midpoints="true"
     inkscape:snap-object-midpoints="true"
     inkscape:snap-smooth-nodes="true"
     units="px"
     inkscape:snap-page="true" />
  <metadata
     id="metadata5">
    <rdf:RDF>
      <cc:Work
         rdf:about="">
        <dc:format>image/svg+xml</dc:format>
        <dc:type
           rdf:resource="http://purl.org/dc/dcmitype/StillImage" />
        <dc:title></dc:title>
      </cc:Work>
    </rdf:RDF>
  </metadata>
  <g
     inkscape:label="Layer 1"
     inkscape:groupmode="layer"
     id="layer1"
     transform="translate(0,-280.06665)">
    <g
       id="g885"
       transform="matrix(0,0.57000354,-0.57000354,0,156.29365,249.65986)"
       style="fill:#cccccc">
      <path
         id="path871"
         d="m 53.344914,259.34398 c 0,-0.44557 7.040667,-12.63991 7.426581,-12.86269 0.385913,-0.22278 14.467808,-0.22279 14.853711,0 0.385913,0.22279 7.427142,12.41711 7.427142,12.86269 1e-5,0.44557 -7.041229,12.6399 -7.427142,12.86269 -0.385903,0.22279 -14.467798,0.22278 -14.853711,-10e-6 -0.385914,-0.22278 -7.426581,-12.41711 -7.426581,-12.86268 z m 0.938299,1e-5 c 0,0.41739 6.596177,11.84071 6.957712,12.0494 0.361535,0.20871 13.553877,0.20872 13.915412,0 0.361535,-0.20869 6.957712,-11.63201 6.957712,-12.04941 0,-0.4174 -6.596177,-11.84072 -6.957712,-12.04943 -0.361535,-0.20869 -13.553877,-0.2087 -13.915412,0 -0.361535,0.2087 -6.957712,11.63202 -6.957712,12.04944 z"
         style="fill:#cccccc;fill-opacity:1;stroke:none;stroke-width:0.17204435;stroke-miterlimit:4;stroke-dasharray:none;stroke-opacity:1"
         inkscape:connector-curvature="0" />
      <path
         id="path873"
         d="m 68.986516,259.38836 c 0,-0.34087 5.34873,-9.60935 5.70206,-9.88448 0.53173,0.60355 5.66767,9.50847 5.66765,9.84278 10e-6,0.3409 -5.35009,9.61103 -5.70248,9.88449 -0.53273,-0.60539 -5.66719,-9.50851 -5.66723,-9.84275 z"
         style="fill:#cccccc;fill-opacity:1;stroke:none;stroke-width:0.15927917;stroke-miterlimit:4;stroke-dasharray:none;stroke-opacity:1"
         inkscape:connector-curvature="0" />
    </g>
  </g>
</svg>
